<svg width="16" height="14" viewBox="0 0 16 14" fill="none" xmlns="http://www.w3.org/2000/svg">
<path d="M14 12.3333H15.3333V13.6667H0.666626V12.3333H1.99996V1.00001C1.99996 0.823199 2.0702 0.65363 2.19522 0.528606C2.32025 0.403581 2.48981 0.333344 2.66663 0.333344H13.3333C13.5101 0.333344 13.6797 0.403581 13.8047 0.528606C13.9297 0.65363 14 0.823199 14 1.00001V12.3333ZM12.6666 12.3333V1.66668H3.33329V12.3333H12.6666ZM5.33329 6.33334H7.33329V7.66668H5.33329V6.33334ZM5.33329 3.66668H7.33329V5.00001H5.33329V3.66668ZM5.33329 9.00001H7.33329V10.3333H5.33329V9.00001ZM8.66663 9.00001H10.6666V10.3333H8.66663V9.00001ZM8.66663 6.33334H10.6666V7.66668H8.66663V6.33334ZM8.66663 3.66668H10.6666V5.00001H8.66663V3.66668Z" fill="#82B284"/>
</svg>
